<?xml version="1.0" encoding="utf-8"?>
<!-- Generator: Adobe Illustrator 17.0.0, SVG Export Plug-In . SVG Version: 6.00 Build 0)  -->
<!DOCTYPE svg PUBLIC "-//W3C//DTD SVG 1.1//EN" "http://www.w3.org/Graphics/SVG/1.1/DTD/svg11.dtd">
<svg version="1.1" id="Layer_1" xmlns="http://www.w3.org/2000/svg" xmlns:xlink="http://www.w3.org/1999/xlink" x="0px" y="0px"
	 width="56px" height="48px" viewBox="0 0 56 48" enable-background="new 0 0 56 48" xml:space="preserve">
<g>
	<path fill-opacity="0.04" d="M51.624,12.363l-1.976-0.879l-0.41-0.182l-0.4-0.178l-0.41-0.182l-5.793-2.578
		c-0.717-0.319-1.569,0.032-1.904,0.784c0,0-2.063,5.075-3.899,9.899c0.371,0.361,0.735,0.734,1.083,1.128
		c0.738,0.837,1.419,1.745,2.035,2.718c1.273,2.009,2.271,4.284,2.903,6.76c-0.005,0.003-0.009,0.007-0.014,0.011l-0.002-0.011
		l-0.203,0.025l-2.991,0.368l1.985,0.883l0.622,0.277l0.825,0.367c0.716,0.319,9.241-17.271,9.241-17.27
		C52.651,13.55,52.34,12.682,51.624,12.363z"/>
	<path fill="#EC1C24" d="M8.132,33.926"/>
	<polygon fill-opacity="0.04" points="49.727,8.013 49.729,8.019 49.734,8.009 	"/>
	<polygon fill-opacity="0.04" points="50.419,8.648 54.938,6.246 54.521,5.464 49.806,7.971 50.569,8.311 	"/>
	<polygon fill-opacity="0.04" points="49.238,11.301 50.419,8.648 50.569,8.311 49.806,7.971 49.759,7.951 49.734,8.009 
		49.729,8.019 48.43,10.941 48.839,11.123 	"/>
	<path fill="#FFFFFF" d="M43.239,32.104c0.002,0.045,0.002,0.072,0.003,0.093C43.243,32.172,43.241,32.142,43.239,32.104z"/>
	<path fill="#FFFFFF" d="M42.595,28.721l-0.018,0.002c0.037,0.124,0.076,0.247,0.111,0.372
		C42.632,28.868,42.595,28.721,42.595,28.721z"/>
	<path fill="#FFFFFF" d="M43.236,31.978c0.001,0.038,0.003,0.078,0.004,0.106C43.237,32.046,43.236,32.01,43.236,31.978z"/>
	<path fill="#FFFFFF" d="M43.243,32.197C43.244,32.237,43.244,32.246,43.243,32.197L43.243,32.197z"/>
	<path fill="#FFFFFF" d="M43.239,32.084c0,0.007,0,0.014,0.001,0.021C43.239,32.099,43.239,32.089,43.239,32.084z"/>
	<path fill="#FFFFFF" d="M8.151,33.1v0.428c0.003-0.144,0.013-0.287,0.018-0.43L8.151,33.1z"/>
	<path fill="#FFFFFF" d="M43.232,31.897c0,0,0.001,0.036,0.003,0.081C43.235,31.949,43.234,31.932,43.232,31.897z"/>
	<path fill="#FFFFFF" d="M42.633,29.677l-2.991,0.368L8.151,33.924v1.867l35.082-3.894c-0.016-0.454-0.236-1.478-0.413-2.243
		L42.633,29.677z"/>
	<path fill-opacity="0.04" d="M42.633,29.677l0.186-0.023l0.017-0.002l0.002,0.011c0.005-0.004,0.009-0.008,0.014-0.011
		c-0.048-0.189-0.113-0.369-0.166-0.556c-0.035-0.125-0.074-0.248-0.111-0.372c-0.631-2.114-1.516-4.079-2.626-5.832
		c-0.616-0.972-1.297-1.881-2.035-2.718c-0.347-0.394-0.711-0.767-1.083-1.128c-3.541-3.445-8.122-5.365-12.914-4.968
		c0,0.276-0.197,0.518-0.479,0.552c-0.284,0.035-0.536-0.154-0.601-0.425C14.533,15.5,8.539,23.493,8.167,33.098
		c-0.006,0.144-0.015,0.286-0.018,0.43c-0.003,0.133-0.016,0.264-0.017,0.398l0.017-0.002l31.492-3.879L42.633,29.677z"/>
	<path fill="#FFFFFF" d="M47.091,18.436c-0.433-1.248-2.931-1.515-5.58-0.597c-1.63,0.565-2.933,1.448-3.596,2.335
		c0.738,0.837,1.419,1.745,2.035,2.718c0.922,0.021,2.007-0.143,3.129-0.532C45.728,21.44,47.525,19.684,47.091,18.436z"/>
	<path fill-opacity="0.04" d="M23.44,14.63c0.281-0.034,0.479-0.276,0.479-0.552c0-0.023,0.008-0.044,0.005-0.068l-0.068-0.552
		c-0.037-0.305-0.315-0.522-0.62-0.484c-0.305,0.037-0.522,0.315-0.484,0.62l0.068,0.552c0.003,0.021,0.015,0.038,0.019,0.059
		C22.903,14.476,23.156,14.665,23.44,14.63z"/>
	<circle fill="#FFFFFF" cx="15.683" cy="24.19" r="0.928"/>
	<circle fill="#FFFFFF" cx="23.169" cy="23.269" r="0.928"/>
	<circle fill="#FFFFFF" cx="20.097" cy="26.803" r="0.928"/>
	<circle fill="#FFFFFF" cx="19.364" cy="20.839" r="0.928"/>
	<g>
		<g>
			<path fill="#FFFFFF" d="M32.616,18.073c-1.115,0-2.019,0.904-2.019,2.019s0.904,2.019,2.019,2.019s2.019-0.904,2.019-2.019
				S33.73,18.073,32.616,18.073z M32.616,20.831c-0.408,0-0.739-0.331-0.739-0.739s0.331-0.739,0.739-0.739s0.739,0.331,0.739,0.739
				S33.023,20.831,32.616,20.831z"/>
			<g>
				<circle opacity="0.04" fill="#FFFFFF" enable-background="new    " cx="32.615" cy="20.092" r="0.739"/>
			</g>
		</g>
	</g>
	<g>
		<path fill-opacity="0.04" d="M45.433,31.653L6.503,35.974l0.845,1.56l3.936-0.437c0.382-1.008,1.349-1.728,2.491-1.728
			c0.933,0,1.752,0.48,2.229,1.204l20.765-2.305c0.417-0.933,1.348-1.585,2.436-1.585c0.875,0,1.646,0.427,2.133,1.078l3.522-0.391
			L45.433,31.653z"/>
		<path fill-opacity="0.04" d="M13.774,35.369c-1.142,0-2.109,0.72-2.491,1.728c-0.111,0.294-0.18,0.61-0.18,0.943
			c0,1.475,1.196,2.671,2.671,2.671s2.671-1.196,2.671-2.671c0-0.542-0.164-1.046-0.442-1.467
			C15.527,35.848,14.708,35.369,13.774,35.369z"/>
		<path fill-opacity="0.04" d="M39.204,32.683c-1.088,0-2.019,0.652-2.436,1.585c-0.148,0.332-0.235,0.698-0.235,1.086
			c0,1.475,1.196,2.671,2.671,2.671s2.671-1.196,2.671-2.671c0-0.6-0.205-1.147-0.538-1.593
			C40.85,33.11,40.081,32.683,39.204,32.683z"/>
	</g>
	<circle fill="#FFFFFF" cx="13.774" cy="38.04" r="1.332"/>
	<circle fill="#FFFFFF" cx="39.204" cy="35.354" r="1.332"/>
	<circle fill-opacity="0.04" cx="13.774" cy="38.04" r="0.527"/>
	<circle fill-opacity="0.04" cx="39.204" cy="35.354" r="0.527"/>
	<path fill="#FFFFFF" d="M36.078,27.633c1.882,0.264,3.89-0.15,5.473-1.218c0.239-0.161,0.014-0.551-0.227-0.389
		c-1.476,0.995-3.364,1.419-5.126,1.172C35.914,27.159,35.792,27.593,36.078,27.633L36.078,27.633z"/>
	<g>
		<g>
			<path fill="#E5E5E5" d="M40.304,20.141c-0.088,0.02-0.234-0.078-0.261-0.193c-0.034-0.149,0.242-0.562,0.719-0.672
				c0.488-0.112,0.902,0.124,1.02,0.638c0.106,0.46-0.084,1.028-0.752,1.182c-0.015,0.003-0.026,0.006-0.04,0.009
				c-0.003,0.254-0.005,0.464,0.001,0.573c0.001,0.039-0.035,0.065-0.083,0.076c-0.081,0.019-0.186-0.003-0.202-0.075
				c-0.037-0.159-0.04-0.358-0.048-0.545c-0.081,0.001-0.13-0.027-0.136-0.054c-0.004-0.017,0.011-0.035,0.048-0.043
				c0.022-0.005,0.048-0.007,0.084-0.005c-0.018-0.381-0.017-0.812,0.028-1.339c0.003-0.054,0.042-0.085,0.094-0.096
				c0.103-0.024,0.254,0.027,0.273,0.112c0.002,0.007,0.004,0.017,0.002,0.024c-0.024,0.383-0.043,0.837-0.055,1.221
				c0.397-0.206,0.572-0.755,0.471-1.192c-0.032-0.139-0.089-0.268-0.175-0.373c-0.098-0.02-0.197-0.015-0.289,0.006
				c-0.29,0.067-0.553,0.334-0.633,0.677C40.357,20.114,40.335,20.133,40.304,20.141z"/>
			<path fill="#E5E5E5" d="M43.863,20.882c-0.043,0.113-0.157,0.225-0.263,0.25c-0.143,0.033-0.298-0.035-0.353-0.325
				c-0.041,0.241-0.124,0.449-0.297,0.489c-0.184,0.042-0.371-0.1-0.438-0.394c-0.102-0.443,0.13-1.199-0.001-1.767
				c-0.026-0.112-0.068-0.159-0.123-0.164c-0.247,0.068-0.474,0.779-0.386,1.158c0.031,0.135,0.103,0.229,0.231,0.232
				c0.043,0.001,0.066,0.017,0.07,0.034s-0.014,0.039-0.062,0.05c-0.308,0.071-0.491-0.168-0.538-0.372
				c-0.099-0.43,0.179-1.085,0.597-1.182c0.213-0.049,0.483,0.032,0.549,0.319c0.118,0.511-0.097,1.209-0.009,1.591
				c0.037,0.159,0.114,0.209,0.191,0.191c0.139-0.032,0.17-0.52,0.173-0.827c0.004-0.486,0.011-1.075,0.032-1.408
				c0.002-0.057,0.055-0.098,0.117-0.112c0.095-0.022,0.216,0.014,0.242,0.126c0.003,0.013,0.006,0.027,0.006,0.045
				c-0.009,0.497-0.097,1.608-0.016,1.96c0.018,0.078,0.054,0.119,0.109,0.107c0.037-0.008,0.065-0.036,0.089-0.067
				c0.211-0.444,0.219-1.447,0.179-2.226c-0.002-0.057,0.044-0.096,0.106-0.11c0.099-0.023,0.227,0.012,0.253,0.127
				C44.395,18.925,44.195,20.545,43.863,20.882z"/>
		</g>
	</g>
	
		<rect x="7.805" y="32.389" transform="matrix(-0.9925 0.1222 -0.1222 -0.9925 54.8192 62.3431)" fill-opacity="0.04" width="35.385" height="0.928"/>
</g>
</svg>
